<!DOCTYPE svg PUBLIC "-//W3C//DTD SVG 1.1//EN" "http://www.w3.org/Graphics/SVG/1.1/DTD/svg11.dtd"><svg xmlns:ev="http://www.w3.org/2001/xml-events" xmlns:xlink="http://www.w3.org/1999/xlink" xmlns="http://www.w3.org/2000/svg" xmlns:v="http://schemas.microsoft.com/visio/2003/SVGExtensions/" width="349.05024" height="466.58016" xml:space="preserve" color-interpolation-filters="sRGB" class="st6" version="1.1">  
 <style type="text/css">
	<![CDATA[
		.st1 {fill:#ffffff;stroke:#000000;stroke-linecap:round;stroke-linejoin:round;stroke-width:0.24}
		.st2 {fill:#000000;font-family:Arial,Helvetica,sans-serif;font-size:0.666664em}
		.st3 {fill:none;stroke:none;stroke-linecap:butt;stroke-width:0.5}
		.st4 {fill:#000000;font-family:'Lucida Sans Typewriter','Lucida Console','Courier New',Courier,monospace;font-size:0.666664em}
		.st5 {font-size:1em}
		.st6 {fill:none;fill-rule:evenodd;font-size:12px;overflow:visible;stroke-linecap:square;stroke-miterlimit:3}
		.st7 {fill:#ffffff;stroke:none;stroke-linecap:butt;stroke-width:0.5}
		.st8 {stroke:#000000;stroke-linecap:butt;stroke-width:0.5}
	]]>
	</style> 
 <defs id="Masters"> 
  <symbol id="master0" class="st6"> 
   <title>Disconnect</title> 
   <g id="group59-181"> 
    <title>Disconnect</title> 
    <g id="master-shape60-182" transform="translate(0.566929,0)"> 
     <title>Sheet.60</title> 
     <rect x="0" y="344.266" width="1.88976" height="5.66929" class="st7" /> 
    </g> 
    <g id="master-shape61-184" transform="translate(347.603,401.728) rotate(99.4623)"> 
     <title>Sheet.61</title> 
     <path d="M0 349.52 C0.15 349.73 0.72 349.9 1.15 349.93 C1.58 349.96 1.86 349.86 2.34 349.62 C2.63 349.48 2.98
								 349.29 3.29 349.17 C4.56 348.67 5.03 349.22 5.75 349.52" class="st8" /> 
    </g> 
    <g id="master-shape62-187" transform="translate(345.713,401.728) rotate(99.4623)"> 
     <title>Sheet.62</title> 
     <path d="M0 349.52 C0.15 349.73 0.72 349.9 1.15 349.93 C1.58 349.96 1.86 349.86 2.34 349.62 C2.63 349.48 2.98
								 349.29 3.29 349.17 C4.56 348.67 5.03 349.22 5.75 349.52" class="st8" /> 
    </g> 
   </g> 
  </symbol> 
 </defs> 
 <g> 
  <title>Page-1</title>  
  <g id="shape1-1" transform="translate(153.571,-6.16929)"> 
   <title>Sheet.1</title> 
   <desc>
    Initial SP value
   </desc>   
   <rect x="0" y="335.762" width="104.642" height="14.1732" class="st1" /> 
   <text x="25.86" y="345.25" class="st2">
    Initial SP value
   </text> 
  </g> 
  <g id="shape2-4" transform="translate(153.571,-20.3425)"> 
   <title>Sheet.2</title> 
   <desc>
    Reset
   </desc>   
   <rect x="0" y="335.762" width="104.882" height="14.1732" class="st1" /> 
   <text x="41.99" y="345.25" class="st2">
    Reset
   </text> 
  </g> 
  <g id="shape3-7" transform="translate(153.571,-48.689)"> 
   <title>Sheet.3</title> 
   <desc>
    Hard fault
   </desc>   
   <rect x="0" y="335.762" width="104.882" height="14.1732" class="st1" /> 
   <text x="35.1" y="345.25" class="st2">
    Hard fault
   </text> 
  </g> 
  <g id="shape4-10" transform="translate(153.571,-34.5157)"> 
   <title>Sheet.4</title> 
   <desc>
    NMI
   </desc>   
   <rect x="0" y="335.762" width="104.882" height="14.1732" class="st1" /> 
   <text x="45.11" y="345.25" class="st2">
    NMI
   </text> 
  </g> 
  <g id="shape5-13" transform="translate(153.571,-62.8622)"> 
   <title>Sheet.5</title> 
   <desc>
    Memory management fault
   </desc>   
   <rect x="0" y="335.762" width="104.882" height="14.1732" class="st1" /> 
   <text x="4.87" y="345.25" class="st2">
    Memory management fault
   </text> 
  </g> 
  <g id="shape6-16" transform="translate(153.571,-91.2087)"> 
   <title>Sheet.6</title> 
   <desc>
    Usage fault
   </desc>   
   <rect x="0" y="335.762" width="104.882" height="14.1732" class="st1" /> 
   <text x="32.21" y="345.25" class="st2">
    Usage fault
   </text> 
  </g> 
  <g id="shape7-19" transform="translate(153.571,-77.0354)"> 
   <title>Sheet.7</title> 
   <desc>
    Bus fault
   </desc>   
   <rect x="0" y="335.762" width="104.882" height="14.1732" class="st1" /> 
   <text x="36.88" y="345.25" class="st2">
    Bus fault
   </text> 
  </g> 
  <g id="shape8-22" transform="translate(119.555,-0.5)"> 
   <title>Sheet.8</title> 
   <desc>
    0x0000
   </desc>   
   <rect x="0" y="338.597" width="34.2557" height="11.3386" class="st3" /> 
   <text x="2.33" y="346.67" class="st4">
    0x0000
   </text> 
  </g> 
  <g id="shape9-25" transform="translate(119.555,-14.6732)"> 
   <title>Sheet.9</title> 
   <desc>
    0x0004
   </desc>   
   <rect x="0" y="338.597" width="34.0157" height="11.3386" class="st3" /> 
   <text x="2.09" y="346.67" class="st4">
    0x0004
   </text> 
  </g> 
  <g id="shape10-28" transform="translate(119.555,-28.8465)"> 
   <title>Sheet.10</title> 
   <desc>
    0x0008
   </desc>   
   <rect x="0" y="338.597" width="34.0157" height="11.3386" class="st3" /> 
   <text x="2.09" y="346.67" class="st4">
    0x0008
   </text> 
  </g> 
  <g id="shape11-31" transform="translate(119.555,-43.0197)"> 
   <title>Sheet.11</title> 
   <desc>
    0x000C
   </desc>   
   <rect x="0" y="338.597" width="34.0157" height="11.3386" class="st3" /> 
   <text x="2.09" y="346.67" class="st4">
    0x000C
   </text> 
  </g> 
  <g id="shape12-34" transform="translate(119.555,-57.1929)"> 
   <title>Sheet.12</title> 
   <desc>
    0x0010
   </desc>   
   <rect x="0" y="338.597" width="34.0157" height="11.3386" class="st3" /> 
   <text x="2.09" y="346.67" class="st4">
    0x0010
   </text> 
  </g> 
  <g id="shape13-37" transform="translate(119.555,-71.3661)"> 
   <title>Sheet.13</title> 
   <desc>
    0x0014
   </desc>   
   <rect x="0" y="338.597" width="34.0157" height="11.3386" class="st3" /> 
   <text x="2.09" y="346.67" class="st4">
    0x0014
   </text> 
  </g> 
  <g id="shape14-40" transform="translate(119.555,-85.5394)"> 
   <title>Sheet.14</title> 
   <desc>
    0x0018
   </desc>   
   <rect x="0" y="338.597" width="34.0157" height="11.3386" class="st3" /> 
   <text x="2.09" y="346.67" class="st4">
    0x0018
   </text> 
  </g> 
  <g id="shape15-43" transform="translate(153.571,-105.382)"> 
   <title>Sheet.15</title> 
   <desc>
    Reserved
   </desc>   
   <rect x="0" y="293.242" width="104.882" height="56.6929" class="st1" /> 
   <text x="35.32" y="323.99" class="st2">
    Reserved
   </text> 
  </g> 
  <g id="shape16-46" transform="translate(153.571,-162.075)"> 
   <title>Sheet.16</title> 
   <desc>
    SVCall
   </desc>   
   <rect x="0" y="335.762" width="104.882" height="14.1732" class="st1" /> 
   <text x="40.21" y="345.25" class="st2">
    SVCall
   </text> 
  </g> 
  <g id="shape17-49" transform="translate(153.571,-204.594)"> 
   <title>Sheet.17</title> 
   <desc>
    PendSV
   </desc>   
   <rect x="0" y="335.762" width="104.882" height="14.1732" class="st1" /> 
   <text x="37.76" y="345.25" class="st2">
    PendSV
   </text> 
  </g> 
  <g id="shape18-52" transform="translate(153.571,-176.248)"> 
   <title>Sheet.18</title> 
   <desc>
    Reserved for Debug
   </desc>   
   <rect x="0" y="335.762" width="104.882" height="14.1732" class="st1" /> 
   <text x="16.64" y="345.25" class="st2">
    Reserved for Debug
   </text> 
  </g> 
  <g id="shape19-55" transform="translate(153.571,-218.768)"> 
   <title>Sheet.19</title> 
   <desc>
    Systick
   </desc>   
   <rect x="0" y="335.762" width="104.882" height="14.1732" class="st1" /> 
   <text x="39.77" y="345.25" class="st2">
    Systick
   </text> 
  </g> 
  <g id="shape20-58" transform="translate(153.571,-232.941)"> 
   <title>Sheet.20</title> 
   <desc>
    IRQ0
   </desc>   
   <rect x="0" y="335.762" width="104.882" height="14.1732" class="st1" /> 
   <text x="43.11" y="345.25" class="st2">
    IRQ0
   </text> 
  </g> 
  <g id="shape21-61" transform="translate(153.571,-190.421)"> 
   <title>Sheet.21</title> 
   <desc>
    Reserved
   </desc>   
   <rect x="0" y="335.762" width="104.882" height="14.1732" class="st1" /> 
   <text x="35.32" y="345.25" class="st2">
    Reserved
   </text> 
  </g> 
  <g id="shape22-64" transform="translate(119.555,-156.406)"> 
   <title>Sheet.22</title> 
   <desc>
    0x002C
   </desc>   
   <rect x="0" y="338.597" width="34.0157" height="11.3386" class="st3" /> 
   <text x="2.09" y="346.67" class="st4">
    0x002C
   </text> 
  </g> 
  <g id="shape23-67" transform="translate(119.555,-198.925)"> 
   <title>Sheet.23</title> 
   <desc>
    0x0038
   </desc>   
   <rect x="0" y="338.597" width="34.0157" height="11.3386" class="st3" /> 
   <text x="2.09" y="346.67" class="st4">
    0x0038
   </text> 
  </g> 
  <g id="shape24-70" transform="translate(119.555,-213.098)"> 
   <title>Sheet.24</title> 
   <desc>
    0x003C
   </desc>   
   <rect x="0" y="338.597" width="34.0157" height="11.3386" class="st3" /> 
   <text x="2.09" y="346.67" class="st4">
    0x003C
   </text> 
  </g> 
  <g id="shape25-73" transform="translate(119.555,-227.272)"> 
   <title>Sheet.25</title> 
   <desc>
    0x0040
   </desc>   
   <rect x="0" y="338.597" width="34.0157" height="11.3386" class="st3" /> 
   <text x="2.09" y="346.67" class="st4">
    0x0040
   </text> 
  </g> 
  <g id="shape26-76" transform="translate(119.555,-337.823)"> 
   <title>Sheet.26</title> 
   <desc>
    Offset
   </desc>   
   <rect x="0" y="338.597" width="34.0157" height="11.3386" class="st3" /> 
   <text x="6.34" y="346.67" class="st2">
    Offset
   </text> 
  </g> 
  <g id="shape27-79" transform="translate(0.5,-337.823)"> 
   <title>Sheet.27</title> 
   <desc>
    Exception number
   </desc>   
   <rect x="0" y="338.597" width="68.0315" height="11.3386" class="st3" /> 
   <text x="1.78" y="346.67" class="st2">
    Exception number
   </text> 
  </g> 
  <g id="shape28-82" transform="translate(20.3425,-35.9331)"> 
   <title>Sheet.28</title> 
   <desc>
    2
   </desc>   
   <rect x="0" y="338.597" width="28.3465" height="11.3386" class="st3" /> 
   <text x="11.95" y="346.67" class="st2">
    2
   </text> 
  </g> 
  <g id="shape29-85" transform="translate(20.3425,-50.1063)"> 
   <title>Sheet.29</title> 
   <desc>
    3
   </desc>   
   <rect x="0" y="338.597" width="28.3465" height="11.3386" class="st3" /> 
   <text x="11.95" y="346.67" class="st2">
    3
   </text> 
  </g> 
  <g id="shape30-88" transform="translate(20.3425,-64.2795)"> 
   <title>Sheet.30</title> 
   <desc>
    4
   </desc>   
   <rect x="0" y="338.597" width="28.3465" height="11.3386" class="st3" /> 
   <text x="11.95" y="346.67" class="st2">
    4
   </text> 
  </g> 
  <g id="shape31-91" transform="translate(20.3425,-78.4528)"> 
   <title>Sheet.31</title> 
   <desc>
    5
   </desc>   
   <rect x="0" y="338.597" width="28.3465" height="11.3386" class="st3" /> 
   <text x="11.95" y="346.67" class="st2">
    5
   </text> 
  </g> 
  <g id="shape32-94" transform="translate(20.3425,-92.626)"> 
   <title>Sheet.32</title> 
   <desc>
    6
   </desc>   
   <rect x="0" y="338.597" width="28.3465" height="11.3386" class="st3" /> 
   <text x="11.95" y="346.67" class="st2">
    6
   </text> 
  </g> 
  <g id="shape33-97" transform="translate(20.3425,-163.492)"> 
   <title>Sheet.33</title> 
   <desc>
    11
   </desc>   
   <rect x="0" y="338.597" width="28.3465" height="11.3386" class="st3" /> 
   <text x="9.72" y="346.67" class="st2">
    11
   </text> 
  </g> 
  <g id="shape34-100" transform="translate(20.3425,-177.665)"> 
   <title>Sheet.34</title> 
   <desc>
    12
   </desc>   
   <rect x="0" y="338.597" width="28.3465" height="11.3386" class="st3" /> 
   <text x="9.72" y="346.67" class="st2">
    12
   </text> 
  </g> 
  <g id="shape35-103" transform="translate(20.3425,-206.012)"> 
   <title>Sheet.35</title> 
   <desc>
    14
   </desc>   
   <rect x="0" y="338.597" width="28.3465" height="11.3386" class="st3" /> 
   <text x="9.72" y="346.67" class="st2">
    14
   </text> 
  </g> 
  <g id="shape36-106" transform="translate(20.3425,-220.185)"> 
   <title>Sheet.36</title> 
   <desc>
    15
   </desc>   
   <rect x="0" y="338.597" width="28.3465" height="11.3386" class="st3" /> 
   <text x="9.72" y="346.67" class="st2">
    15
   </text> 
  </g> 
  <g id="shape37-109" transform="translate(20.3425,-234.358)"> 
   <title>Sheet.37</title> 
   <desc>
    16
   </desc>   
   <rect x="0" y="338.597" width="28.3465" height="11.3386" class="st3" /> 
   <text x="9.72" y="346.67" class="st2">
    16
   </text> 
  </g> 
  <g id="shape38-112" transform="translate(20.3425,-262.705)"> 
   <title>Sheet.38</title> 
   <desc>
    18
   </desc>   
   <rect x="0" y="338.597" width="28.3465" height="11.3386" class="st3" /> 
   <text x="9.72" y="346.67" class="st2">
    18
   </text> 
  </g> 
  <g id="shape39-115" transform="translate(20.3425,-191.839)"> 
   <title>Sheet.39</title> 
   <desc>
    13
   </desc>   
   <rect x="0" y="338.597" width="28.3465" height="11.3386" class="st3" /> 
   <text x="9.72" y="346.67" class="st2">
    13
   </text> 
  </g> 
  <g id="shape40-118" transform="translate(20.3425,-106.799)"> 
   <title>Sheet.40</title> 
   <desc>
    7
   </desc>   
   <rect x="0" y="338.597" width="28.3465" height="11.3386" class="st3" /> 
   <text x="11.95" y="346.67" class="st2">
    7
   </text> 
  </g> 
  <g id="shape41-121" transform="translate(20.3425,-149.319)"> 
   <title>Sheet.41</title> 
   <desc>
    10
   </desc>   
   <rect x="0" y="338.597" width="28.3465" height="11.3386" class="st3" /> 
   <text x="9.72" y="346.67" class="st2">
    10
   </text> 
  </g> 
  <g id="shape42-124" transform="translate(20.3425,-21.7598)"> 
   <title>Sheet.42</title> 
   <desc>
    1
   </desc>   
   <rect x="0" y="338.597" width="28.3465" height="11.3386" class="st3" /> 
   <text x="11.95" y="346.67" class="st2">
    1
   </text> 
  </g> 
  <g id="shape43-127" transform="translate(153.571,-337.823)"> 
   <title>Sheet.43</title> 
   <desc>
    Vector
   </desc>   
   <rect x="0" y="338.597" width="104.882" height="11.3386" class="st3" /> 
   <text x="40.88" y="346.67" class="st2">
    Vector
   </text> 
  </g> 
  <g id="shape44-130" transform="translate(20.3425,-288.217)"> 
   <title>Sheet.44</title> 
   <desc>
    . . .
   </desc>   
   <rect x="0" y="332.928" width="28.3465" height="17.0079" class="st3" /> 
   <text x="13.06" y="334.23" class="st2">
    .
    <tspan x="13.06" dy="9.5999616" class="st5">
     .
    </tspan>
    <tspan x="13.06" dy="9.5999616" class="st5">
     .
    </tspan>
   </text> 
  </g> 
  <g id="shape45-135" transform="translate(20.3425,-120.972)"> 
   <title>Sheet.45</title> 
   <desc>
    8
   </desc>   
   <rect x="0" y="338.597" width="28.3465" height="11.3386" class="st3" /> 
   <text x="11.95" y="346.67" class="st2">
    8
   </text> 
  </g> 
  <g id="shape46-138" transform="translate(20.3425,-135.146)"> 
   <title>Sheet.46</title> 
   <desc>
    9
   </desc>   
   <rect x="0" y="338.597" width="28.3465" height="11.3386" class="st3" /> 
   <text x="11.95" y="346.67" class="st2">
    9
   </text> 
  </g> 
  <g id="shape47-141" transform="translate(153.571,-247.114)"> 
   <title>Sheet.47</title> 
   <desc>
    IRQ1
   </desc>   
   <rect x="0" y="335.762" width="104.882" height="14.1732" class="st1" /> 
   <text x="43.11" y="345.25" class="st2">
    IRQ1
   </text> 
  </g> 
  <g id="shape48-144" transform="translate(153.571,-261.287)"> 
   <title>Sheet.48</title> 
   <desc>
    IRQ2
   </desc>   
   <rect x="0" y="335.762" width="104.882" height="14.1732" class="st1" /> 
   <text x="43.11" y="345.25" class="st2">
    IRQ2
   </text> 
  </g> 
  <g id="shape49-147" transform="translate(119.555,-241.445)"> 
   <title>Sheet.49</title> 
   <desc>
    0x0044
   </desc>   
   <rect x="0" y="338.597" width="34.0157" height="11.3386" class="st3" /> 
   <text x="2.09" y="346.67" class="st4">
    0x0044
   </text> 
  </g> 
  <g id="shape50-150" transform="translate(153.571,-275.461)"> 
   <title>Sheet.50</title> 
   <rect x="0" y="307.416" width="104.882" height="42.5197" class="st1" /> 
  </g> 
  <g id="shape51-152" transform="translate(153.571,-317.98)"> 
   <title>Sheet.51</title> 
   <desc>
    IRQn
   </desc>   
   <rect x="0" y="335.762" width="104.882" height="14.1732" class="st1" /> 
   <text x="43.11" y="345.25" class="st2">
    IRQn
   </text> 
  </g> 
  <g id="shape52-155" transform="translate(20.3425,-248.531)"> 
   <title>Sheet.52</title> 
   <desc>
    17
   </desc>   
   <rect x="0" y="338.597" width="28.3465" height="11.3386" class="st3" /> 
   <text x="9.72" y="346.67" class="st2">
    17
   </text> 
  </g> 
  <g id="shape53-158" transform="translate(119.555,-255.618)"> 
   <title>Sheet.53</title> 
   <desc>
    0x0048
   </desc>   
   <rect x="0" y="338.597" width="34.0157" height="11.3386" class="st3" /> 
   <text x="2.09" y="346.67" class="st4">
    0x0048
   </text> 
  </g> 
  <g id="shape54-161" transform="translate(119.555,-269.791)"> 
   <title>Sheet.54</title> 
   <desc>
    0x004C
   </desc>   
   <rect x="0" y="338.597" width="34.0157" height="11.3386" class="st3" /> 
   <text x="2.09" y="346.67" class="st4">
    0x004C
   </text> 
  </g> 
  <g id="shape55-164" transform="translate(20.3425,-319.398)"> 
   <title>Sheet.55</title> 
   <desc>
    16+n
   </desc>   
   <rect x="0" y="338.597" width="28.3465" height="11.3386" class="st3" /> 
   <text x="5.16" y="346.67" class="st2">
    16+n
   </text> 
  </g> 
  <g id="shape56-167" transform="translate(122.39,-288.217)"> 
   <title>Sheet.56</title> 
   <desc>
    . . .
   </desc>   
   <rect x="0" y="332.928" width="28.3465" height="17.0079" class="st3" /> 
   <text x="13.06" y="334.23" class="st2">
    .
    <tspan x="13.06" dy="9.5999616" class="st5">
     .
    </tspan>
    <tspan x="13.06" dy="9.5999616" class="st5">
     .
    </tspan>
   </text> 
  </g> 
  <g id="shape57-172" transform="translate(191.839,-288.217)"> 
   <title>Sheet.57</title> 
   <desc>
    . . .
   </desc>   
   <rect x="0" y="332.928" width="28.3465" height="17.0079" class="st3" /> 
   <text x="13.06" y="334.23" class="st2">
    .
    <tspan x="13.06" dy="9.5999616" class="st5">
     .
    </tspan>
    <tspan x="13.06" dy="9.5999616" class="st5">
     .
    </tspan>
   </text> 
  </g> 
  <g id="shape58-177" transform="translate(105.382,-312.311)"> 
   <title>Sheet.58</title> 
   <desc>
    0x0040+4n
   </desc>   
   <rect x="0" y="338.597" width="48.189" height="11.3386" class="st3" /> 
   <text x="1.81" y="346.67" class="st4">
    0x0040+4n
   </text> 
  </g> 
  <use id="shape59-180" xlink:href="#master0" transform="translate(605.554,51.7976) rotate(90)"> 
   <title>Disconnect</title> 
  </use> 
  <use id="shape63-190" xlink:href="#master0" transform="translate(500.672,51.7976) rotate(90)"> 
   <title>Disconnect.63</title> 
  </use> 
  <g id="master-shape67-191" transform="translate(68.5315,-337.823)"> 
   <title>Sheet.67</title> 
   <desc>
    IRQ number
   </desc>   
   <rect x="0" y="338.597" width="51.0236" height="11.3386" class="st3" /> 
   <text x="3.73" y="346.67" class="st2">
    IRQ number
   </text> 
  </g> 
  <g id="master-shape68-194" transform="translate(79.8701,-35.9331)"> 
   <title>Sheet.68</title> 
   <desc>
    -14
   </desc>   
   <rect x="0" y="338.597" width="28.3465" height="11.3386" class="st3" /> 
   <text x="8.39" y="346.67" class="st2">
    -14
   </text> 
  </g> 
  <g id="master-shape69-197" transform="translate(79.8701,-50.1063)"> 
   <title>Sheet.69</title> 
   <desc>
    -13
   </desc>   
   <rect x="0" y="338.597" width="28.3465" height="11.3386" class="st3" /> 
   <text x="8.39" y="346.67" class="st2">
    -13
   </text> 
  </g> 
  <g id="master-shape70-200" transform="translate(79.8701,-64.2795)"> 
   <title>Sheet.70</title> 
   <desc>
    -12
   </desc>   
   <rect x="0" y="338.597" width="28.3465" height="11.3386" class="st3" /> 
   <text x="8.39" y="346.67" class="st2">
    -12
   </text> 
  </g> 
  <g id="master-shape71-203" transform="translate(79.8701,-78.4528)"> 
   <title>Sheet.71</title> 
   <desc>
    -11
   </desc>   
   <rect x="0" y="338.597" width="28.3465" height="11.3386" class="st3" /> 
   <text x="8.39" y="346.67" class="st2">
    -11
   </text> 
  </g> 
  <g id="master-shape72-206" transform="translate(79.8701,-92.626)"> 
   <title>Sheet.72</title> 
   <desc>
    -10
   </desc>   
   <rect x="0" y="338.597" width="28.3465" height="11.3386" class="st3" /> 
   <text x="8.39" y="346.67" class="st2">
    -10
   </text> 
  </g> 
  <g id="master-shape73-209" transform="translate(79.8701,-163.492)"> 
   <title>Sheet.73</title> 
   <desc>
    -5
   </desc>   
   <rect x="0" y="338.597" width="28.3465" height="11.3386" class="st3" /> 
   <text x="10.62" y="346.67" class="st2">
    -5
   </text> 
  </g> 
  <g id="master-shape74-212" transform="translate(79.8701,-206.012)"> 
   <title>Sheet.74</title> 
   <desc>
    -2
   </desc>   
   <rect x="0" y="338.597" width="28.3465" height="11.3386" class="st3" /> 
   <text x="10.62" y="346.67" class="st2">
    -2
   </text> 
  </g> 
  <g id="master-shape75-215" transform="translate(79.8701,-220.185)"> 
   <title>Sheet.75</title> 
   <desc>
    -1
   </desc>   
   <rect x="0" y="338.597" width="28.3465" height="11.3386" class="st3" /> 
   <text x="10.62" y="346.67" class="st2">
    -1
   </text> 
  </g> 
  <g id="master-shape76-218" transform="translate(79.8701,-234.358)"> 
   <title>Sheet.76</title> 
   <desc>
    0
   </desc>   
   <rect x="0" y="338.597" width="28.3465" height="11.3386" class="st3" /> 
   <text x="11.95" y="346.67" class="st2">
    0
   </text> 
  </g> 
  <g id="master-shape77-221" transform="translate(79.8701,-262.705)"> 
   <title>Sheet.77</title> 
   <desc>
    2
   </desc>   
   <rect x="0" y="338.597" width="28.3465" height="11.3386" class="st3" /> 
   <text x="11.95" y="346.67" class="st2">
    2
   </text> 
  </g> 
  <g id="master-shape78-224" transform="translate(79.8701,-248.531)"> 
   <title>Sheet.78</title> 
   <desc>
    1
   </desc>   
   <rect x="0" y="338.597" width="28.3465" height="11.3386" class="st3" /> 
   <text x="11.95" y="346.67" class="st2">
    1
   </text> 
  </g> 
  <g id="master-shape79-227" transform="translate(79.8701,-319.398)"> 
   <title>Sheet.79</title> 
   <desc>
    n
   </desc>   
   <rect x="0" y="338.597" width="28.3465" height="11.3386" class="st3" /> 
   <text x="11.95" y="346.67" class="st2">
    n
   </text> 
  </g> 
 </g> 
</svg>